<?xml version="1.0" encoding="UTF-8" standalone="no"?>
<!-- Created with Inkscape (http://www.inkscape.org/) -->

<svg
   width="98.894386mm"
   height="54.627491mm"
   viewBox="0 0 98.894386 54.627491"
   version="1.1"
   id="svg5"
   sodipodi:docname="assemblr logo.svg"
   inkscape:version="1.1 (c68e22c387, 2021-05-23)"
   xmlns:inkscape="http://www.inkscape.org/namespaces/inkscape"
   xmlns:sodipodi="http://sodipodi.sourceforge.net/DTD/sodipodi-0.dtd"
   xmlns="http://www.w3.org/2000/svg"
   xmlns:svg="http://www.w3.org/2000/svg">
  <sodipodi:namedview
     id="namedview7"
     pagecolor="#505050"
     bordercolor="#ffffff"
     borderopacity="1"
     inkscape:pageshadow="0"
     inkscape:pageopacity="0"
     inkscape:pagecheckerboard="1"
     inkscape:document-units="mm"
     showgrid="false"
     inkscape:snap-midpoints="true"
     inkscape:zoom="2.6832492"
     inkscape:cx="189.69539"
     inkscape:cy="84.785267"
     inkscape:window-width="1920"
     inkscape:window-height="1057"
     inkscape:window-x="-8"
     inkscape:window-y="-8"
     inkscape:window-maximized="1"
     inkscape:current-layer="layer1"
     inkscape:snap-nodes="false"
     inkscape:snap-bbox="true"
     inkscape:bbox-nodes="true" />
  <defs
     id="defs2" />
  <g
     inkscape:groupmode="layer"
     id="layer2"
     inkscape:label="bg"
     transform="translate(-25.243029,-94.93119)" />
  <g
     inkscape:label="Layer 1"
     inkscape:groupmode="layer"
     id="layer1"
     transform="translate(-25.243029,-94.93119)">
    <g
       aria-label="ssemblr"
       id="text1508"
       style="font-size:10.5833px;line-height:1.25;font-family:'UTM Times';-inkscape-font-specification:'UTM Times';fill:#ffffff;stroke-width:0.264583" />
    <path
       id="path17199"
       style="color:#000000;fill:#c20114;fill-opacity:1;stroke-width:2.21073;stroke-linejoin:round;-inkscape-stroke:none"
       d="m 51.203843,97.837374 a 0.62034469,0.62034469 0 0 0 -0.522457,0.427467 l -0.993103,3.100199 h -2.720237 -4.080354 a 0.62034469,0.62034469 0 0 0 -0.45769,1.03627 l 2.189142,2.41368 -1.360118,2.35322 -2.038018,3.53199 a 0.62034469,0.62034469 0 0 0 0.669264,0.91538 l 3.177927,-0.69085 1.360117,2.35754 a 0.62034469,0.62034469 0 0 0 0.53973,0.31088 h 6.342901 a 0.62034469,0.62034469 0 0 0 0.535411,-0.31088 l 3.173609,-5.4923 2.038018,-3.53197 a 0.62034469,0.62034469 0 0 0 -0.669263,-0.91971 l -3.182245,0.69085 -1.360119,-2.35321 -2.038018,-3.531994 a 0.62034469,0.62034469 0 0 0 -0.604497,-0.306562 z m 0.228845,2.141646 0.803119,1.38602 H 50.98795 Z m -7.141699,2.62524 h 1.601917 l -0.621769,1.07945 z m 3.035437,0 h 2.810912 2.815228 l 1.407614,2.43525 1.403298,2.43959 -2.810912,4.87051 h -5.62614 l -1.407613,-2.43526 -1.407615,-2.43525 1.407615,-2.43959 z m 9.95693,2.24526 -0.803119,1.38605 -0.621769,-1.07946 z m -13.488919,3.87312 0.621769,1.07514 -1.420568,0.30656 z m 11.036389,0.88515 c -0.1968,0.0221 -0.371663,0.13508 -0.470646,0.30656 l -1.588963,2.74615 0.53973,0.31088 v 0.62177 h 4.076037 c 0.543172,0.005 0.830012,-0.64105 0.462007,-1.0406 l -2.495708,-2.74614 c -0.132798,-0.14525 -0.326671,-0.21909 -0.522457,-0.19853 z" />
    <text
       xml:space="preserve"
       style="font-size:10.5833px;line-height:1.25;font-family:'UTM Times';-inkscape-font-specification:'UTM Times';fill:#ecebf3;fill-opacity:1;stroke-width:0.264583"
       x="36.573235"
       y="123.76435"
       id="text4876"
       inkscape:export-filename="C:\Users\joshr\OneDrive\Documents\GitHub\University-Code\INF-01\Homework\Project 1\text4876.png"
       inkscape:export-xdpi="800"
       inkscape:export-ydpi="800"><tspan
         sodipodi:role="line"
         id="tspan4874"
         style="font-style:normal;font-variant:normal;font-weight:normal;font-stretch:normal;font-family:Rajdhani;-inkscape-font-specification:Rajdhani;fill:#ecebf3;fill-opacity:1;stroke-width:0.264583"
         x="36.573235"
         y="123.76435">ssemblr</tspan></text>
    <path
       id="path8120"
       style="color:#000000;fill:#c20114;fill-opacity:1;stroke-width:1.03844;stroke-linejoin:round;-inkscape-stroke:none"
       d="m 32.781362,116.36343 a 0.29139233,0.29139233 0 0 0 -0.245412,0.20079 l -0.466487,1.45624 h -1.277768 -1.91665 a 0.29139233,0.29139233 0 0 0 -0.214989,0.48677 l 1.028298,1.13377 -0.638884,1.10537 -0.957311,1.65907 a 0.29139233,0.29139233 0 0 0 0.314371,0.42998 l 1.492757,-0.32452 0.638883,1.1074 a 0.29139233,0.29139233 0 0 0 0.253525,0.14604 h 2.979429 a 0.29139233,0.29139233 0 0 0 0.251496,-0.14604 l 1.490729,-2.57987 0.957311,-1.65906 a 0.29139233,0.29139233 0 0 0 -0.314371,-0.43201 l -1.494785,0.32451 -0.638884,-1.10537 -0.95731,-1.65908 a 0.29139233,0.29139233 0 0 0 -0.283948,-0.14399 z m 0.107494,1.00599 0.377246,0.65104 h -0.586151 z m -3.354645,1.23315 h 0.752462 l -0.292061,0.50704 z m 1.425826,0 h 1.320359 1.322387 l 0.661194,1.14389 0.659166,1.14595 -1.32036,2.2878 h -2.642746 l -0.661194,-1.1439 -0.661194,-1.1439 0.661194,-1.14595 z m 4.677033,1.05466 -0.377247,0.65106 -0.292061,-0.50706 z m -6.336103,1.8193 0.292061,0.50502 -0.667277,0.14399 z m 5.184085,0.41577 c -0.09244,0.0104 -0.17458,0.0634 -0.221075,0.14401 l -0.746378,1.28994 0.253525,0.14603 v 0.29206 h 1.914623 c 0.255142,0.002 0.389879,-0.30113 0.217017,-0.4888 l -1.172301,-1.28994 c -0.06238,-0.0683 -0.153446,-0.10288 -0.245411,-0.0933 z"
       inkscape:export-filename="C:\Users\joshr\OneDrive\Documents\GitHub\University-Code\INF-01\Homework\Project 1\text4876.png"
       inkscape:export-xdpi="800"
       inkscape:export-ydpi="800" />
    <text
       xml:space="preserve"
       style="font-size:10.5833px;line-height:1.25;font-family:'UTM Times';-inkscape-font-specification:'UTM Times';fill:#ecebf3;fill-opacity:1;stroke-width:0.264583"
       x="36.573235"
       y="133.59554"
       id="text8302"><tspan
         sodipodi:role="line"
         id="tspan8300"
         style="font-style:normal;font-variant:normal;font-weight:normal;font-stretch:normal;font-family:Rajdhani;-inkscape-font-specification:Rajdhani;fill:#ecebf3;fill-opacity:1;stroke-width:0.264583"
         x="36.573235"
         y="133.59554">ssemblr</tspan></text>
    <path
       id="path8304"
       style="color:#000000;fill:#ecebf3;fill-opacity:1;stroke-width:1.03844;stroke-linejoin:round;-inkscape-stroke:none"
       d="m 32.781362,126.19461 a 0.29139233,0.29139233 0 0 0 -0.245412,0.20079 l -0.466487,1.45624 h -1.277768 -1.91665 a 0.29139233,0.29139233 0 0 0 -0.214989,0.48677 l 1.028298,1.13377 -0.638884,1.10537 -0.957311,1.65907 a 0.29139233,0.29139233 0 0 0 0.314371,0.42998 l 1.492757,-0.32452 0.638883,1.1074 a 0.29139233,0.29139233 0 0 0 0.253525,0.14604 h 2.979429 a 0.29139233,0.29139233 0 0 0 0.251496,-0.14604 l 1.490729,-2.57987 0.957311,-1.65906 a 0.29139233,0.29139233 0 0 0 -0.314371,-0.43201 l -1.494785,0.32451 -0.638884,-1.10537 -0.95731,-1.65908 a 0.29139233,0.29139233 0 0 0 -0.283948,-0.14399 z m 0.107494,1.00599 0.377246,0.65104 h -0.586151 z m -3.354645,1.23315 h 0.752462 l -0.292061,0.50704 z m 1.425826,0 h 1.320359 1.322387 l 0.661194,1.14389 0.659166,1.14595 -1.32036,2.2878 h -2.642746 l -0.661194,-1.1439 -0.661194,-1.1439 0.661194,-1.14595 z m 4.677033,1.05466 -0.377247,0.65106 -0.292061,-0.50706 z m -6.336103,1.8193 0.292061,0.50502 -0.667277,0.14399 z m 5.184085,0.41577 c -0.09244,0.0104 -0.17458,0.0634 -0.221075,0.14401 l -0.746378,1.28994 0.253525,0.14603 v 0.29206 h 1.914623 c 0.255142,0.002 0.389879,-0.30113 0.217017,-0.4888 l -1.172301,-1.28994 c -0.06238,-0.0683 -0.153446,-0.10288 -0.245411,-0.0933 z" />
    <path
       id="path12342"
       style="color:#000000;fill:#c20114;fill-opacity:1;stroke-width:2.21073;stroke-linejoin:round;-inkscape-stroke:none"
       d="m 101.29548,97.837374 a 0.62034469,0.62034469 0 0 0 -0.52246,0.427467 l -0.993103,3.100199 H 97.05968 92.979326 a 0.62034469,0.62034469 0 0 0 -0.45769,1.03627 l 2.189142,2.41368 -1.360118,2.35322 -2.038018,3.53199 a 0.62034469,0.62034469 0 0 0 0.669264,0.91538 l 3.177927,-0.69085 1.360117,2.35754 a 0.62034469,0.62034469 0 0 0 0.53973,0.31088 h 6.3429 a 0.62034469,0.62034469 0 0 0 0.53541,-0.31088 l 3.17361,-5.4923 2.03802,-3.53197 a 0.62034469,0.62034469 0 0 0 -0.66926,-0.91971 l -3.18225,0.69085 -1.36012,-2.35321 -2.03802,-3.531994 a 0.62034469,0.62034469 0 0 0 -0.60449,-0.306562 z m 0.22884,2.141646 0.80312,1.38602 h -1.24786 z m -7.141697,2.62524 h 1.601917 l -0.621769,1.07945 z m 3.035437,0 h 2.81091 2.81523 l 1.40761,2.43525 1.4033,2.43959 -2.81091,4.87051 h -5.62614 l -1.407613,-2.43526 -1.407615,-2.43525 1.407615,-2.43959 z m 9.95693,2.24526 -0.80312,1.38605 -0.62177,-1.07946 z m -13.488919,3.87312 0.621769,1.07514 -1.420568,0.30656 z m 11.036389,0.88515 c -0.1968,0.0221 -0.37166,0.13508 -0.47065,0.30656 l -1.58896,2.74615 0.53973,0.31088 v 0.62177 h 4.07604 c 0.54317,0.005 0.83001,-0.64105 0.462,-1.0406 l -2.4957,-2.74614 c -0.1328,-0.14525 -0.32667,-0.21909 -0.52246,-0.19853 z" />
    <text
       xml:space="preserve"
       style="font-size:10.5833px;line-height:1.25;font-family:'UTM Times';-inkscape-font-specification:'UTM Times';fill:#0c120c;fill-opacity:1;stroke-width:0.264583"
       x="86.664871"
       y="123.76435"
       id="text12346"
       inkscape:export-filename="C:\Users\joshr\OneDrive\Documents\GitHub\University-Code\INF-01\Homework\Project 1\text12346.png"
       inkscape:export-xdpi="800"
       inkscape:export-ydpi="800"><tspan
         sodipodi:role="line"
         id="tspan12344"
         style="font-style:normal;font-variant:normal;font-weight:normal;font-stretch:normal;font-family:Rajdhani;-inkscape-font-specification:Rajdhani;fill:#0c120c;fill-opacity:1;stroke-width:0.264583"
         x="86.664871"
         y="123.76435">ssemblr</tspan></text>
    <path
       id="path12348"
       style="color:#000000;fill:#c20114;fill-opacity:1;stroke-width:1.03844;stroke-linejoin:round;-inkscape-stroke:none"
       d="m 82.872996,116.36343 a 0.29139233,0.29139233 0 0 0 -0.245412,0.20079 l -0.466487,1.45624 h -1.277768 -1.91665 a 0.29139233,0.29139233 0 0 0 -0.214989,0.48677 l 1.028298,1.13377 -0.638884,1.10537 -0.957311,1.65907 a 0.29139233,0.29139233 0 0 0 0.314371,0.42998 l 1.492757,-0.32452 0.638883,1.1074 a 0.29139233,0.29139233 0 0 0 0.253525,0.14604 h 2.979429 a 0.29139233,0.29139233 0 0 0 0.251496,-0.14604 l 1.490729,-2.57987 0.957311,-1.65906 a 0.29139233,0.29139233 0 0 0 -0.314371,-0.43201 l -1.494785,0.32451 -0.638884,-1.10537 -0.95731,-1.65908 a 0.29139233,0.29139233 0 0 0 -0.283948,-0.14399 z m 0.107494,1.00599 0.377246,0.65104 h -0.586151 z m -3.354645,1.23315 h 0.752462 l -0.292061,0.50704 z m 1.425826,0 h 1.320359 1.322387 l 0.661194,1.14389 0.659166,1.14595 -1.32036,2.2878 h -2.642746 l -0.661194,-1.1439 -0.661194,-1.1439 0.661194,-1.14595 z m 4.677033,1.05466 -0.377247,0.65106 -0.292061,-0.50706 z m -6.336103,1.8193 0.292061,0.50502 -0.667277,0.14399 z m 5.184085,0.41577 c -0.09244,0.0104 -0.17458,0.0634 -0.221075,0.14401 l -0.746378,1.28994 0.253525,0.14603 v 0.29206 h 1.914623 c 0.255142,0.002 0.389879,-0.30113 0.217017,-0.4888 l -1.172301,-1.28994 c -0.06238,-0.0683 -0.153446,-0.10288 -0.245411,-0.0933 z"
       inkscape:export-filename="C:\Users\joshr\OneDrive\Documents\GitHub\University-Code\INF-01\Homework\Project 1\text12346.png"
       inkscape:export-xdpi="800"
       inkscape:export-ydpi="800" />
    <text
       xml:space="preserve"
       style="font-size:10.5833px;line-height:1.25;font-family:'UTM Times';-inkscape-font-specification:'UTM Times';fill:#0c120c;fill-opacity:1;stroke-width:0.264583"
       x="86.664871"
       y="133.59554"
       id="text12352"><tspan
         sodipodi:role="line"
         id="tspan12350"
         style="font-style:normal;font-variant:normal;font-weight:normal;font-stretch:normal;font-family:Rajdhani;-inkscape-font-specification:Rajdhani;fill:#0c120c;fill-opacity:1;stroke-width:0.264583"
         x="86.664871"
         y="133.59554">ssemblr</tspan></text>
    <path
       id="path12354"
       style="color:#000000;fill:#0c120c;fill-opacity:1;stroke-width:1.03844;stroke-linejoin:round;-inkscape-stroke:none"
       d="m 82.872996,126.19461 a 0.29139233,0.29139233 0 0 0 -0.245412,0.20079 l -0.466487,1.45624 h -1.277768 -1.91665 a 0.29139233,0.29139233 0 0 0 -0.214989,0.48677 l 1.028298,1.13377 -0.638884,1.10537 -0.957311,1.65907 a 0.29139233,0.29139233 0 0 0 0.314371,0.42998 l 1.492757,-0.32452 0.638883,1.1074 a 0.29139233,0.29139233 0 0 0 0.253525,0.14604 h 2.979429 a 0.29139233,0.29139233 0 0 0 0.251496,-0.14604 l 1.490729,-2.57987 0.957311,-1.65906 a 0.29139233,0.29139233 0 0 0 -0.314371,-0.43201 l -1.494785,0.32451 -0.638884,-1.10537 -0.95731,-1.65908 a 0.29139233,0.29139233 0 0 0 -0.283948,-0.14399 z m 0.107494,1.00599 0.377246,0.65104 h -0.586151 z m -3.354645,1.23315 h 0.752462 l -0.292061,0.50704 z m 1.425826,0 h 1.320359 1.322387 l 0.661194,1.14389 0.659166,1.14595 -1.32036,2.2878 h -2.642746 l -0.661194,-1.1439 -0.661194,-1.1439 0.661194,-1.14595 z m 4.677033,1.05466 -0.377247,0.65106 -0.292061,-0.50706 z m -6.336103,1.8193 0.292061,0.50502 -0.667277,0.14399 z m 5.184085,0.41577 c -0.09244,0.0104 -0.17458,0.0634 -0.221075,0.14401 l -0.746378,1.28994 0.253525,0.14603 v 0.29206 h 1.914623 c 0.255142,0.002 0.389879,-0.30113 0.217017,-0.4888 l -1.172301,-1.28994 c -0.06238,-0.0683 -0.153446,-0.10288 -0.245411,-0.0933 z"
       inkscape:export-filename="C:\Users\joshr\OneDrive\Documents\GitHub\University-Code\INF-01\Homework\Project 1\path12354.png"
       inkscape:export-xdpi="1500"
       inkscape:export-ydpi="1500" />
    <text
       xml:space="preserve"
       style="font-size:10.5833px;line-height:1.25;font-family:'UTM Times';-inkscape-font-specification:'UTM Times';fill:#ecebf3;fill-opacity:1;stroke-width:0.264583"
       x="31.13471"
       y="144.05423"
       id="text12398"><tspan
         sodipodi:role="line"
         id="tspan12396"
         style="font-style:normal;font-variant:normal;font-weight:normal;font-stretch:normal;font-family:Rajdhani;-inkscape-font-specification:Rajdhani;fill:#ecebf3;fill-opacity:1;stroke-width:0.264583"
         x="31.13471"
         y="144.05423">assemblr</tspan></text>
    <text
       xml:space="preserve"
       style="font-size:10.5833px;line-height:1.25;font-family:'UTM Times';-inkscape-font-specification:'UTM Times';fill:#0c120c;fill-opacity:1;stroke-width:0.264583"
       x="81.226349"
       y="144.05423"
       id="text12402"><tspan
         sodipodi:role="line"
         id="tspan12400"
         style="font-style:normal;font-variant:normal;font-weight:normal;font-stretch:normal;font-family:Rajdhani;-inkscape-font-specification:Rajdhani;fill:#0c120c;fill-opacity:1;stroke-width:0.264583"
         x="81.226349"
         y="144.05423">assemblr</tspan></text>
  </g>
</svg>
