<?xml version="1.0" encoding="UTF-8" standalone="no"?>
<!-- Created with Inkscape (http://www.inkscape.org/) -->

<svg
   width="210mm"
   height="297mm"
   viewBox="0 0 210 297"
   version="1.1"
   id="svg5"
   inkscape:version="1.1 (c68e22c387, 2021-05-23)"
   sodipodi:docname="Fiji.svg"
   xmlns:inkscape="http://www.inkscape.org/namespaces/inkscape"
   xmlns:sodipodi="http://sodipodi.sourceforge.net/DTD/sodipodi-0.dtd"
   xmlns="http://www.w3.org/2000/svg"
   xmlns:svg="http://www.w3.org/2000/svg">
  <sodipodi:namedview
     id="namedview7"
     pagecolor="#505050"
     bordercolor="#ffffff"
     borderopacity="1"
     inkscape:pageshadow="0"
     inkscape:pageopacity="0"
     inkscape:pagecheckerboard="1"
     inkscape:document-units="mm"
     showgrid="false"
     inkscape:snap-bbox="true"
     inkscape:snap-bbox-midpoints="false"
     inkscape:bbox-nodes="true"
     inkscape:zoom="16"
     inkscape:cx="415.5"
     inkscape:cy="497.78125"
     inkscape:window-width="1920"
     inkscape:window-height="1057"
     inkscape:window-x="-8"
     inkscape:window-y="-8"
     inkscape:window-maximized="1"
     inkscape:current-layer="layer1" />
  <defs
     id="defs2" />
  <g
     inkscape:label="Layer 1"
     inkscape:groupmode="layer"
     id="layer1">
    <g
       aria-label="&gt;_Fiji"
       id="text1310"
       style="font-weight:bold;font-size:10.5833px;line-height:1.25;font-family:Orbitron;-inkscape-font-specification:'Orbitron Bold';stroke-width:0.264583;fill:#ffffff">
      <path
         d="m 100.78233,128.45572 h 7.00615 v 1.397 h -5.59857 v 1.71449 h 4.50849 v 1.397 h -4.50849 v 3.11149 h -1.40758 z"
         id="path5273"
         style="fill:#ffffff" />
      <path
         d="m 108.37055,136.0757 v -6.13831 h 1.38641 v 6.13831 z m 0,-8.14914 h 1.38641 v 1.39699 h -1.38641 z"
         id="path5275"
         style="fill:#ffffff" />
      <path
         d="m 111.02696,127.92656 h 1.38641 v 1.39699 h -1.38641 z m 1.38641,2.01083 v 6.99556 q 0,0.60324 -0.43391,1.02658 -0.42334,0.43391 -1.02659,0.43391 h -2.64582 v -1.39699 h 2.64582 q 0.0741,0 0.0741,-0.0635 v -6.99556 z"
         id="path5277"
         style="fill:#ffffff" />
      <path
         d="m 113.36585,136.0757 v -6.13831 h 1.38641 v 6.13831 z"
         id="path5279"
         sodipodi:nodetypes="ccccc"
         style="fill:#ffffff" />
      <text
         xml:space="preserve"
         style="font-size:2.74859px;line-height:1.25;font-family:'UTM Times';-inkscape-font-specification:'UTM Times';stroke-width:0.0181808;fill:#ff60ff;fill-opacity:1"
         x="114.3466"
         y="137.4594"
         id="text8080"><tspan
           sodipodi:role="line"
           id="tspan8078"
           style="font-style:normal;font-variant:normal;font-weight:bold;font-stretch:normal;font-family:Orbitron;-inkscape-font-specification:'Orbitron Bold';stroke-width:0.0181808;fill:#ff60ff;fill-opacity:1"
           x="114.3466"
           y="137.4594">.exe</tspan></text>
    </g>
    <path
       style="fill:#ff60ff;stroke-width:0.00248206;fill-opacity:1"
       d="m 113.16963,129.24127 c -0.0655,-0.0384 -0.0477,-0.14181 -0.10678,-0.18434 -0.0393,-0.0443 -0.008,-0.0945 -0.0567,-0.12273 -0.0412,-0.0549 -0.1351,0.0729 -0.15245,-0.007 -0.0302,-0.0542 -0.002,-0.10301 0.028,-0.1335 0.049,-0.0244 -0.009,0.0846 0.0444,0.0195 -0.01,-0.03 0.0662,-0.0393 0.0358,-0.0944 -0.0739,0.0485 -0.0603,-0.0757 0.0119,-0.0463 0.0208,0.0402 0.0293,0.0433 0.0715,0.0298 0.0377,0.0618 0.11591,0.021 0.1269,-0.004 0.0642,-0.0166 0.056,-0.0938 0.1248,-0.0762 0.0206,0.0501 0.0194,-0.0912 0.0814,-0.0744 0.027,0.03 0.0774,0.0615 0.1084,0.0538 0.0454,0.002 0.0799,0.002 0.10524,-0.004 0.0277,0.005 -0.0356,-0.0172 -0.0437,0.006 -0.0616,-0.0124 -0.0957,-0.004 -0.14249,-0.0428 -0.03,-0.0308 0.0908,-0.0494 0.047,-0.0955 0.0283,-0.0117 0.0598,-0.0798 0.0694,-0.0214 0.0533,-0.0379 0.12242,0.01 0.15539,-0.0418 0.081,-0.005 0.14682,-0.0376 0.2142,-0.0649 0.0612,0.0208 0.13611,0.0212 0.19832,-0.0197 0.062,0.0629 0.0291,0.0358 0.0126,-0.0149 0.0102,0.0218 -0.009,-0.0718 0.0439,-0.0311 0.0413,0.006 0.0124,-0.0559 0.0379,-0.0642 0.005,0.01 0.033,-0.005 0.0389,-0.0121 0.0186,-0.0367 0.0179,-0.0695 0.05,-0.04 0.007,-0.0297 0.0786,0.0329 0.0436,-0.0333 0.002,-0.0339 0.0631,0.0589 0.0434,-0.024 -0.008,-0.0395 0.0623,0.0615 0.0434,-0.0126 0.0109,-0.0646 0.006,0.0524 0.0581,0.007 0.0372,-0.0196 0.0119,-0.0283 0.056,-0.0169 0.006,-0.0719 0.0134,-0.0536 0.0472,-0.0278 0.0149,-0.0432 0.0995,-0.0445 0.084,0.0106 0.0427,-4.2e-4 0.0674,-0.0209 0.11346,-0.0343 -0.009,0.0248 0.0371,0.0799 0.0528,0.0113 0.0262,-0.0359 0.0855,-0.0324 0.1429,-0.0744 0.0299,4.5e-4 0.15815,-0.0883 0.1145,-0.0264 -0.0596,0.0347 -0.1159,0.0777 -0.1774,0.1021 -0.0392,0.0451 -0.10873,0.0686 -0.1199,0.13854 -0.0276,0.0673 -0.0744,0.11454 -0.1082,0.17486 -0.0191,0.088 -0.1204,0.0931 -0.17678,0.13823 -0.0309,0.0171 -0.10717,0.0636 -0.0884,0.0986 -0.0247,0.0412 -0.0226,0.0687 -0.0742,0.0924 -0.0123,0.0497 -0.0923,0.0906 -0.0492,0.11905 -0.0342,0.0718 -0.003,0.0804 0.063,0.0591 0.0421,0.0399 0.0717,-0.0572 0.127,-0.0539 0.0263,-0.0747 0.13451,-0.074 0.13311,-0.1648 0.0713,-0.0531 0.12222,-0.13731 0.21529,-0.1572 0.0328,-0.008 0.10316,-0.10378 0.0965,-0.017 -0.0297,0.0436 -0.0548,0.0943 -0.0723,0.15245 -0.0232,0.023 -0.003,0.0576 -0.0416,0.0702 -0.0705,0.052 0.007,0.0301 0.0469,0.0538 -0.007,0.0823 0.0591,0.0358 0.0689,0.0995 4.3e-4,0.0368 -0.0862,-0.0506 -0.0477,0.0255 -0.008,0.015 -0.0725,0.008 -0.0556,-0.0305 -0.0606,0.002 -0.10504,-0.0558 -0.1674,-0.0322 -0.0455,-0.022 -0.0552,0.0376 -0.11132,0.0434 -0.0677,0.005 -0.11104,0.12533 -0.167,0.0537 -0.0657,0.0185 -0.12902,0.0438 -0.1945,0.0163 -0.0661,-0.008 -0.10486,0.0194 -0.1716,0.025 0.0261,-0.0577 0.14299,-0.0682 0.0881,-0.1247 -0.0542,8.2e-4 -0.0651,-0.0533 -0.12429,-0.0511 -0.0956,-0.0291 -0.13533,0.0492 -0.20191,0.089 0.005,0.0753 -0.0948,0.0763 -0.12169,0.0687 0.0343,0.0197 -0.0529,0.14427 -0.0227,0.131 0.0275,-0.0459 0.11438,0.0348 0.0286,0.0259 -0.0527,0.017 -0.0464,0.0772 -0.0757,0.0102 -0.0577,0.005 -0.10197,-0.0406 -0.1187,-0.10388 -0.0196,-0.0317 0.0385,0.12117 -0.0255,0.0388 -0.0659,-0.0222 -0.0757,0.0833 -0.1431,0.0798 0.0739,0.0459 -0.083,0.0575 -0.003,0.0901 0.001,0.0414 -0.0485,0.0133 -0.0583,0.0403 -0.006,0.008 -0.0792,-0.002 -0.0529,0.006 z m 1.18168,-0.36125 c -0.0223,-0.0215 -0.023,0.0203 0,0 z m -0.18079,-0.21918 c -0.0156,-0.0163 -0.0163,0.006 0,0 z m -0.0434,-0.29613 c -0.0103,-0.006 -0.005,0.01 0,0 z m 0.78584,0.8727 c -0.0497,-0.0593 -0.0322,-0.12398 0.034,-0.1621 0.0523,-0.0708 0.0656,-0.16758 0.14701,-0.21908 0.0237,-0.0659 0.15683,-0.16154 0.14547,-0.0277 -0.008,0.0512 0.078,0.0637 0.011,0.0951 -0.0364,0.0194 -0.0283,0.11204 -0.0831,0.1148 -0.0633,0.0561 -0.11572,0.12712 -0.18391,0.17424 -0.0258,-0.004 -0.0553,0.0348 -0.0705,0.0247 z m 0.10405,-0.16653 c -0.018,-2.7e-4 0.003,0.005 0,0 z m 0.32571,-0.15274 c -0.0419,-0.0153 0.033,-0.0575 -0.009,-0.0628 0.0472,-0.0572 0.0574,0.0367 0.11469,-0.008 0.0152,-0.0286 0.004,0.0831 -0.0305,0.0288 -0.0256,0.0286 -0.0216,0.0519 -0.0623,0.037 -0.005,0.0117 0.006,0.0265 -0.0126,0.005 z m 0.12896,-0.0254 c 0.0229,-0.0337 -0.0247,-0.0803 0.0453,-0.0603 -0.002,0.021 -0.0268,0.0805 -0.0453,0.0603 z m -1.10462,-0.0265 c -0.002,-0.0158 0.0181,0.0107 0,0 z m 0.50101,-0.13848 c -0.0165,-0.009 0.0366,-0.0324 0.0297,-0.0578 0.0782,-0.02 0.0179,0.079 -0.0297,0.0578 z m 0.0734,-0.0563 c -0.01,-0.0553 0.0182,-9.5e-4 9.9e-4,-0.001 z m -1.80639,-0.0251 c -0.01,-0.0163 0.0131,5.9e-4 0,0 z m -0.15077,-0.0255 c -0.0953,-0.0157 0.12128,-0.0535 0.0145,-0.006 0.0176,0.007 -0.0219,0.006 -0.0145,0.006 z m 0.18639,-0.0467 c -0.067,-0.007 0.0929,-0.049 0.0122,0.003 l -0.0121,-0.006 z m 1.83189,-0.0514 c -0.006,-0.0805 0.0792,-0.11527 0.13207,-0.14488 0.0555,0.0261 -0.0708,0.0476 -0.009,0.0999 0.005,0.0519 -0.0828,0.0485 -0.0909,0.0327 -0.004,-0.0154 -0.0312,0.0317 -0.0321,0.0124 z m -1.32758,-0.15392 c -0.0264,-0.0335 0.0658,-0.0334 0,0 z m 0.41985,-0.0566 c -0.0331,-0.0179 0.0102,-0.0361 0,0 z m -0.0221,-0.002 c 0.022,0.005 -0.01,-0.009 0,0 z m -0.004,-0.0672 c 0.001,-0.0511 0.12341,-0.007 0.026,-0.001 l -0.0204,0.002 -0.007,-0.001 z m 0.19776,-0.10925 c -0.008,-0.0491 0.0263,0.0439 0,0 z m -0.54765,-0.0688 c 0.003,-0.0327 0.0196,0.0174 0,0 z m 0.95178,-0.0354 c 0.0104,-0.006 0.0161,0.004 0,0 z m -0.19664,-0.007 c -0.026,-0.0585 0.0447,0.009 0,0 z"
       id="path5160" />
  </g>
</svg>
